<svg xmlns="http://www.w3.org/2000/svg" viewBox="0 0 512 512" role="img" aria-label="Markdown Preview and Editor">
  <defs>
    <linearGradient id="bg" x1="72" y1="44" x2="448" y2="472" gradientUnits="userSpaceOnUse">
      <stop stop-color="#9B82FF"/>
      <stop offset="0.52" stop-color="#7650F4"/>
      <stop offset="1" stop-color="#3E5FE5"/>
    </linearGradient>
    <linearGradient id="paper" x1="156" y1="115" x2="358" y2="402" gradientUnits="userSpaceOnUse">
      <stop stop-color="#FFFFFF"/>
      <stop offset="1" stop-color="#EDE9FF"/>
    </linearGradient>
    <filter id="shadow" x="76" y="72" width="380" height="390" filterUnits="userSpaceOnUse">
      <feDropShadow dx="0" dy="24" stdDeviation="18" flood-color="#24125F" flood-opacity="0.34"/>
    </filter>
  </defs>
  <rect width="512" height="512" rx="120" fill="url(#bg)"/>
  <path d="M72 128c56-76 148-105 232-73 68 26 120 86 137 157-66-39-149-42-218-7-63 32-112 90-133 158-35-70-43-164-18-235Z" fill="#FFFFFF" opacity="0.1"/>
  <g filter="url(#shadow)">
    <rect x="126" y="92" width="260" height="328" rx="36" fill="url(#paper)"/>
    <rect x="164" y="146" width="128" height="22" rx="11" fill="#6843DC"/>
    <rect x="164" y="192" width="184" height="14" rx="7" fill="#B9ACEF"/>
    <rect x="164" y="222" width="152" height="14" rx="7" fill="#CEC5F5"/>
    <rect x="164" y="252" width="174" height="14" rx="7" fill="#CEC5F5"/>
    <path d="m167 331 36-40 32 29 46-59 62 70H167Z" fill="#7D5BF0" opacity="0.92"/>
    <circle cx="199" cy="282" r="12" fill="#A895F5"/>
    <path d="m311 369 68-68c7-7 18-7 25 0l12 12c7 7 7 18 0 25l-68 68-45 10 8-47Z" fill="#14172A"/>
    <path d="m368 312 36 36" stroke="#FFFFFF" stroke-width="13" stroke-linecap="round" opacity="0.88"/>
  </g>
</svg>
